#Comment line ignore any data following # character 
#Hierarchical Translation and Rotation (.htr) file 
[Header]	
#Header keywords are followed by a single value 
FileType HTR		#Single word string
DataType HTRS		#Translation followed by rotation and scale data
FileVersion 1		#integer
NumSegments 84		#integer
NumFrames 2		#integer
DataFrameRate 30		#integer, data frame rate in this file
EulerRotationOrder ZYX
CalibrationUnits mm
RotationUnits Degrees
GlobalAxisofGravity Y
BoneLengthAxis Y
ScaleFactor 1.00
[SegmentNames&Hierarchy]
#CHILD	PARENT
MASTER GLOBAL
root MASTER
chest root
L_mid_tent01 root
R_mid_tent01 root
spine01 root
Bip01_Neck chest
L_humerus chest
R_humerus chest
weapon_bone chest
Bip01_Head Bip01_Neck
eye_left_bone Bip01_Head
eye_right_bone Bip01_Head
L_forearm L_humerus
L_front_hand L_forearm
L_weapon_bone L_forearm
L_front_hand01_01 L_front_hand
L_front_hand02_01 L_front_hand
L_front_hand03_01 L_front_hand
L_front_hand01_02 L_front_hand01_01
L_front_hand02_02 L_front_hand02_01
L_front_hand03_02 L_front_hand03_01
R_forearm R_humerus
R_front_hand R_forearm
R_weapon_bone R_forearm
R_front_hand01_01 R_front_hand
R_front_hand02_01 R_front_hand
R_front_hand03_01 R_front_hand
R_front_hand01_02 R_front_hand01_01
R_front_hand02_02 R_front_hand02_01
R_front_hand03_02 R_front_hand03_01
null_rope01_connect L_mid_tent01
Rope1_Seg01 null_rope01_connect
Rope1_Seg02 Rope1_Seg01
Rope1_Seg03 Rope1_Seg02
Rope1_Seg04 Rope1_Seg03
Rope1_Seg05 Rope1_Seg04
Rope1_Seg06 Rope1_Seg05
Rope1_Seg07 Rope1_Seg06
Rope1_Seg09 Rope1_Seg07
L_mid_hand01 Rope1_Seg09
L_mid_hand02 Rope1_Seg09
L_mid_hand03 Rope1_Seg09
null_rope02_connect R_mid_tent01
Rope2_Seg01 null_rope02_connect
Rope2_Seg02 Rope2_Seg01
Rope2_Seg03 Rope2_Seg02
Rope2_Seg04 Rope2_Seg03
Rope2_Seg05 Rope2_Seg04
Rope2_Seg06 Rope2_Seg05
Rope2_Seg07 Rope2_Seg06
Rope2_Seg09 Rope2_Seg07
R_mid_hand01 Rope2_Seg09
R_mid_hand02 Rope2_Seg09
R_mid_hand03 Rope2_Seg09
spine02 spine01
spine03 spine02
pelvis spine03
null_rope03_connect pelvis
null_rope04_connect pelvis
Rope3_Seg01 null_rope03_connect
Rope3_Seg02 Rope3_Seg01
Rope3_Seg03 Rope3_Seg02
Rope3_Seg04 Rope3_Seg03
Rope3_Seg05 Rope3_Seg04
Rope3_Seg06 Rope3_Seg05
Rope3_Seg07 Rope3_Seg06
Rope3_Seg08 Rope3_Seg07
Rope3_Seg09 Rope3_Seg08
R_rear_hand01 Rope3_Seg09
R_rear_hand02 Rope3_Seg09
R_rear_hand03 Rope3_Seg09
Rope4_Seg01 null_rope04_connect
Rope4_Seg02 Rope4_Seg01
Rope4_Seg03 Rope4_Seg02
Rope4_Seg04 Rope4_Seg03
Rope4_Seg05 Rope4_Seg04
Rope4_Seg06 Rope4_Seg05
Rope4_Seg07 Rope4_Seg06
Rope4_Seg08 Rope4_Seg07
Rope4_Seg09 Rope4_Seg08
L_rear_hand01 Rope4_Seg09
L_rear_hand02 Rope4_Seg09
L_rear_hand03 Rope4_Seg09
[BasePosition]
#SegmentName Tx, Ty, Tz, Rx, Ry, Rz, BoneLength
MASTER 0.000000 0.000000 0.000000 -90.000000 0.000000 0.000000 10.000000 
root 0.000000 0.000000 0.000000 0.000000 0.000000 0.000000 10.000000 
chest 0.000000 0.000000 0.000000 0.000000 0.000000 0.000000 10.000000 
L_mid_tent01 0.000000 0.000000 0.000000 0.000000 0.000000 0.000000 10.000000 
R_mid_tent01 0.000000 0.000000 0.000000 0.000000 0.000000 0.000000 10.000000 
spine01 0.000000 0.000000 0.000000 0.000000 0.000000 0.000000 10.000000 
Bip01_Neck 0.000000 0.000000 0.000000 0.000000 0.000000 0.000000 10.000000 
L_humerus 0.000000 0.000000 0.000000 0.000000 0.000000 0.000000 10.000000 
R_humerus 0.000000 0.000000 0.000000 0.000000 0.000000 0.000000 10.000000 
weapon_bone 0.000000 0.000000 0.000000 0.000000 0.000000 0.000000 10.000000 
Bip01_Head 0.000000 0.000000 0.000000 0.000000 0.000000 0.000000 10.000000 
eye_left_bone 0.000000 0.000000 0.000000 0.000000 0.000000 0.000000 10.000000 
eye_right_bone 0.000000 0.000000 0.000000 0.000000 0.000000 0.000000 10.000000 
L_forearm 0.000000 0.000000 0.000000 0.000000 0.000000 0.000000 10.000000 
L_front_hand 0.000000 0.000000 0.000000 0.000000 0.000000 0.000000 10.000000 
L_weapon_bone 0.000000 0.000000 0.000000 0.000000 0.000000 0.000000 10.000000 
L_front_hand01_01 0.000000 0.000000 0.000000 0.000000 0.000000 0.000000 10.000000 
L_front_hand02_01 0.000000 0.000000 0.000000 0.000000 0.000000 0.000000 10.000000 
L_front_hand03_01 0.000000 0.000000 0.000000 0.000000 0.000000 0.000000 10.000000 
L_front_hand01_02 0.000000 0.000000 0.000000 0.000000 0.000000 0.000000 10.000000 
L_front_hand02_02 0.000000 0.000000 0.000000 0.000000 0.000000 0.000000 10.000000 
L_front_hand03_02 0.000000 0.000000 0.000000 0.000000 0.000000 0.000000 10.000000 
R_forearm 0.000000 0.000000 0.000000 0.000000 0.000000 0.000000 10.000000 
R_front_hand 0.000000 0.000000 0.000000 0.000000 0.000000 0.000000 10.000000 
R_weapon_bone 0.000000 0.000000 0.000000 0.000000 0.000000 0.000000 10.000000 
R_front_hand01_01 0.000000 0.000000 0.000000 0.000000 0.000000 0.000000 10.000000 
R_front_hand02_01 0.000000 0.000000 0.000000 0.000000 0.000000 0.000000 10.000000 
R_front_hand03_01 0.000000 0.000000 0.000000 0.000000 0.000000 0.000000 10.000000 
R_front_hand01_02 0.000000 0.000000 0.000000 0.000000 0.000000 0.000000 10.000000 
R_front_hand02_02 0.000000 0.000000 0.000000 0.000000 0.000000 0.000000 10.000000 
R_front_hand03_02 0.000000 0.000000 0.000000 0.000000 0.000000 0.000000 10.000000 
null_rope01_connect 0.000000 0.000000 0.000000 0.000000 0.000000 0.000000 10.000000 
Rope1_Seg01 0.000000 0.000000 0.000000 0.000000 0.000000 0.000000 10.000000 
Rope1_Seg02 0.000000 0.000000 0.000000 0.000000 0.000000 0.000000 10.000000 
Rope1_Seg03 0.000000 0.000000 0.000000 0.000000 0.000000 0.000000 10.000000 
Rope1_Seg04 0.000000 0.000000 0.000000 0.000000 0.000000 0.000000 10.000000 
Rope1_Seg05 0.000000 0.000000 0.000000 0.000000 0.000000 0.000000 10.000000 
Rope1_Seg06 0.000000 0.000000 0.000000 0.000000 0.000000 0.000000 10.000000 
Rope1_Seg07 0.000000 0.000000 0.000000 0.000000 0.000000 0.000000 10.000000 
Rope1_Seg09 0.000000 0.000000 0.000000 0.000000 0.000000 0.000000 10.000000 
L_mid_hand01 0.000000 0.000000 0.000000 0.000000 0.000000 0.000000 10.000000 
L_mid_hand02 0.000000 0.000000 0.000000 0.000000 0.000000 0.000000 10.000000 
L_mid_hand03 0.000000 0.000000 0.000000 0.000000 0.000000 0.000000 10.000000 
null_rope02_connect 0.000000 0.000000 0.000000 0.000000 0.000000 0.000000 10.000000 
Rope2_Seg01 0.000000 0.000000 0.000000 0.000000 0.000000 0.000000 10.000000 
Rope2_Seg02 0.000000 0.000000 0.000000 0.000000 0.000000 0.000000 10.000000 
Rope2_Seg03 0.000000 0.000000 0.000000 0.000000 0.000000 0.000000 10.000000 
Rope2_Seg04 0.000000 0.000000 0.000000 0.000000 0.000000 0.000000 10.000000 
Rope2_Seg05 0.000000 0.000000 0.000000 0.000000 0.000000 0.000000 10.000000 
Rope2_Seg06 0.000000 0.000000 0.000000 0.000000 0.000000 0.000000 10.000000 
Rope2_Seg07 0.000000 0.000000 0.000000 0.000000 0.000000 0.000000 10.000000 
Rope2_Seg09 0.000000 0.000000 0.000000 0.000000 0.000000 0.000000 10.000000 
R_mid_hand01 0.000000 0.000000 0.000000 0.000000 0.000000 0.000000 10.000000 
R_mid_hand02 0.000000 0.000000 0.000000 0.000000 0.000000 0.000000 10.000000 
R_mid_hand03 0.000000 0.000000 0.000000 0.000000 0.000000 0.000000 10.000000 
spine02 0.000000 0.000000 0.000000 0.000000 0.000000 0.000000 10.000000 
spine03 0.000000 0.000000 0.000000 0.000000 0.000000 0.000000 10.000000 
pelvis 0.000000 0.000000 0.000000 0.000000 0.000000 0.000000 10.000000 
null_rope03_connect 0.000000 0.000000 0.000000 0.000000 0.000000 0.000000 10.000000 
null_rope04_connect 0.000000 0.000000 0.000000 0.000000 0.000000 0.000000 10.000000 
Rope3_Seg01 0.000000 0.000000 0.000000 0.000000 0.000000 0.000000 10.000000 
Rope3_Seg02 0.000000 0.000000 0.000000 0.000000 0.000000 0.000000 10.000000 
Rope3_Seg03 0.000000 0.000000 0.000000 0.000000 0.000000 0.000000 10.000000 
Rope3_Seg04 0.000000 0.000000 0.000000 0.000000 0.000000 0.000000 10.000000 
Rope3_Seg05 0.000000 0.000000 0.000000 0.000000 0.000000 0.000000 10.000000 
Rope3_Seg06 0.000000 0.000000 0.000000 0.000000 0.000000 0.000000 10.000000 
Rope3_Seg07 0.000000 0.000000 0.000000 0.000000 0.000000 0.000000 10.000000 
Rope3_Seg08 0.000000 0.000000 0.000000 0.000000 0.000000 0.000000 10.000000 
Rope3_Seg09 0.000000 0.000000 0.000000 0.000000 0.000000 0.000000 10.000000 
R_rear_hand01 0.000000 0.000000 0.000000 0.000000 0.000000 0.000000 10.000000 
R_rear_hand02 0.000000 0.000000 0.000000 0.000000 0.000000 0.000000 10.000000 
R_rear_hand03 0.000000 0.000000 0.000000 0.000000 0.000000 0.000000 10.000000 
Rope4_Seg01 0.000000 0.000000 0.000000 0.000000 0.000000 0.000000 10.000000 
Rope4_Seg02 0.000000 0.000000 0.000000 0.000000 0.000000 0.000000 10.000000 
Rope4_Seg03 0.000000 0.000000 0.000000 0.000000 0.000000 0.000000 10.000000 
Rope4_Seg04 0.000000 0.000000 0.000000 0.000000 0.000000 0.000000 10.000000 
Rope4_Seg05 0.000000 0.000000 0.000000 0.000000 0.000000 0.000000 10.000000 
Rope4_Seg06 0.000000 0.000000 0.000000 0.000000 0.000000 0.000000 10.000000 
Rope4_Seg07 0.000000 0.000000 0.000000 0.000000 0.000000 0.000000 10.000000 
Rope4_Seg08 0.000000 0.000000 0.000000 0.000000 0.000000 0.000000 10.000000 
Rope4_Seg09 0.000000 0.000000 0.000000 0.000000 0.000000 0.000000 10.000000 
L_rear_hand01 0.000000 0.000000 0.000000 0.000000 0.000000 0.000000 10.000000 
L_rear_hand02 0.000000 0.000000 0.000000 0.000000 0.000000 0.000000 10.000000 
L_rear_hand03 0.000000 0.000000 0.000000 0.000000 0.000000 0.000000 10.000000 
#Beginning of Data. Separated by tabs
#Fr	Tx	Ty	Tz	Rx	Ry	Rz	SF
[MASTER]
32 -263.240662 37.253670 0.000000 0.001660 0.001660 0.001660 265.863647
33 -271.574677 -138.938156 0.000000 0.001660 0.001660 0.001660 305.051819
[root]
32 -51.416660 -62.822098 1500.068481 -54.116920 -27.107862 -119.801041 1502.263550
33 -26.257784 -62.822098 1500.038696 -49.748692 -26.223824 -118.198280 1501.583374
[chest]
32 -84.512650 -34.090519 0.000000 7.275981 2.687536 165.216141 91.129311
33 -84.512650 -34.090519 0.000000 7.237281 1.812531 169.596100 91.129311
[L_mid_tent01]
32 27.299456 22.177570 -249.918274 90.192673 32.994900 -178.687073 252.381149
33 27.299456 22.177572 -249.918274 88.581787 34.960804 178.953201 252.381149
[R_mid_tent01]
32 23.228794 24.509907 226.238495 162.379120 -26.452347 82.112671 228.744751
33 23.228794 24.509907 226.238495 162.600098 -26.594591 81.607979 228.744751
[spine01]
32 -0.361383 -0.195265 0.000000 0.001845 0.001451 13.654368 0.410763
33 -0.361383 -0.195265 0.000000 0.001845 0.001451 13.654368 0.410763
[Bip01_Neck]
32 165.484543 71.581718 0.000119 176.643677 -1.657967 43.431911 180.302734
33 165.484543 71.581718 0.000119 176.643677 -1.657967 43.431911 180.302734
[L_humerus]
32 -13.983130 -135.272980 -120.471481 -161.931747 36.515003 -67.106567 181.680161
33 -13.983130 -135.272980 -120.471481 -163.343735 33.987652 -68.706253 181.680161
[R_humerus]
32 -13.983309 -135.273102 125.287651 150.528976 -17.207304 -48.084591 184.909012
33 -13.983309 -135.273102 125.287651 153.384125 -15.856664 -51.800697 184.909012
[weapon_bone]
32 235.964890 -300.705902 0.000000 0.000000 -89.951546 -128.212341 382.234833
33 235.964890 -300.705902 0.000000 0.000000 -89.951546 -128.212341 382.234833
[Bip01_Head]
32 213.444366 185.715500 11.776986 -1.537537 -5.068580 38.156937 283.173859
33 213.444382 185.715515 11.776987 -2.382733 -5.431440 37.135101 283.173889
[eye_left_bone]
32 -24.626970 125.451866 -64.772606 0.000000 -90.000000 -99.840431 143.318359
33 -24.626970 125.451866 -64.772606 0.000000 -90.000000 -99.840431 143.318359
[eye_right_bone]
32 -24.626970 125.451866 64.327362 0.000000 -89.965736 80.156380 143.117676
33 -24.626970 125.451866 64.327362 0.000000 -89.965736 80.156380 143.117676
[L_forearm]
32 322.776093 0.000000 -0.000119 0.000277 -0.002331 -103.560875 322.776093
33 322.776093 0.000000 -0.000119 0.000270 -0.002332 -103.189453 322.776093
[L_front_hand]
32 241.149185 -0.042021 -3.300071 149.893951 -1.837327 -27.423067 241.171753
33 241.149185 -0.042021 -3.300071 149.893951 -1.837325 -27.423061 241.171753
[L_weapon_bone]
32 156.183838 0.000000 0.000000 0.000014 0.000007 0.000001 156.183838
33 156.183838 0.000000 0.000000 0.000014 0.000007 0.000001 156.183838
[L_front_hand01_01]
32 86.095154 20.947098 -0.655860 0.222178 -0.559269 16.122253 88.609184
33 86.095154 20.947098 -0.655860 0.357230 -0.482178 1.305794 88.609184
[L_front_hand02_01]
32 86.935165 -11.437475 24.513514 117.907471 -14.823483 -8.063095 91.046425
33 86.935165 -11.437475 24.513514 116.912949 -1.653988 -1.188119 91.046425
[L_front_hand03_01]
32 86.637497 -14.123976 -20.424902 -119.206047 13.559198 -10.135698 90.126129
33 86.637497 -14.123976 -20.424902 -118.323631 0.554542 -2.967914 90.126129
[L_front_hand01_02]
32 71.020905 -0.000179 0.000030 0.000334 -0.002323 -106.379036 71.020905
33 71.020905 -0.000179 0.000030 0.000000 0.000000 -57.378670 71.020905
[L_front_hand02_02]
32 71.020927 -0.000119 0.000060 0.000334 -0.002323 -106.379036 71.020927
33 71.020927 -0.000119 0.000060 0.000000 0.000000 -57.378670 71.020927
[L_front_hand03_02]
32 71.020905 -0.000060 0.000060 0.000334 -0.002323 -106.379036 71.020905
33 71.020905 -0.000060 0.000060 0.000000 0.000000 -57.378670 71.020905
[R_forearm]
32 322.776428 -0.000060 0.000030 0.174284 -0.123844 -56.067543 322.776428
33 322.776428 -0.000060 0.000030 0.172388 -0.126469 -54.331917 322.776428
[R_front_hand]
32 238.847015 -0.006795 2.210259 -8.879457 -10.642941 -26.315098 238.857239
33 238.847015 -0.006795 2.210259 -8.879457 -10.642941 -26.315098 238.857239
[R_weapon_bone]
32 155.664093 0.002503 -0.000030 0.003487 0.001180 -90.988930 155.664078
33 155.664093 0.002503 -0.000030 0.003487 0.001180 -90.988930 155.664078
[R_front_hand01_01]
32 87.624611 14.231146 22.918642 -117.163467 -7.643548 4.362224 91.683487
33 87.624611 14.231146 22.918642 -116.903458 0.432161 0.238225 91.683487
[R_front_hand02_01]
32 89.356956 14.367283 -19.491137 118.548973 6.741964 6.564280 92.579636
33 89.356956 14.367283 -19.491137 118.339790 -1.230874 2.245642 92.579636
[R_front_hand03_01]
32 87.286232 -22.307278 -0.143439 -0.328019 -0.309644 -8.268798 90.091743
33 87.286232 -22.307278 -0.143439 -0.376010 -0.257865 0.793869 90.091743
[R_front_hand01_02]
32 71.020905 0.000060 0.000119 0.001777 0.001534 8.377220 71.020905
33 71.020905 0.000060 0.000119 0.001777 0.001534 8.377220 71.020905
[R_front_hand02_02]
32 71.020844 -0.000030 -0.000119 0.001777 0.001534 8.377220 71.020836
33 71.020844 -0.000030 -0.000119 0.001777 0.001534 8.377220 71.020836
[R_front_hand03_02]
32 71.020905 0.000000 0.000030 0.001777 0.001534 8.377220 71.020905
33 71.020905 0.000000 0.000030 0.001777 0.001534 8.377220 71.020905
[null_rope01_connect]
32 328.732483 0.000000 -0.000238 -140.911530 -19.387388 95.500763 328.732483
33 328.732483 0.000000 -0.000238 -137.829254 -25.126751 96.937057 328.732483
[Rope1_Seg01]
32 -0.000030 0.000022 0.000087 20.745787 85.139771 31.482733 0.000094
33 -0.000030 0.000021 0.000085 -106.880508 61.882977 -103.119812 0.000092
[Rope1_Seg02]
32 139.999863 -0.000179 0.000000 4.611572 -29.289688 -1.653838 139.999863
33 139.999863 -0.000179 0.000000 0.431369 -27.242535 19.472393 139.999863
[Rope1_Seg03]
32 139.999924 0.000060 -0.000060 4.100522 -7.906317 40.305981 139.999924
33 139.999924 0.000060 -0.000060 -2.675460 -14.696645 19.322819 139.999924
[Rope1_Seg04]
32 139.999924 -0.000060 -0.000119 24.092365 1.146740 30.045204 139.999924
33 139.999924 -0.000060 -0.000119 14.309312 -1.550970 47.126545 139.999924
[Rope1_Seg05]
32 139.999832 0.000119 -0.000060 9.420074 2.915616 6.867774 139.999832
33 139.999832 0.000119 -0.000060 11.867550 2.743054 14.298147 139.999832
[Rope1_Seg06]
32 139.999954 0.000119 -0.000060 5.554901 2.136326 3.379307 139.999954
33 139.999954 0.000119 -0.000060 6.173158 2.172764 5.624633 139.999954
[Rope1_Seg07]
32 139.999985 0.000060 0.000000 3.284058 1.399721 1.808343 139.999985
33 139.999985 0.000060 0.000000 3.773115 1.536648 2.992221 139.999985
[Rope1_Seg09]
32 121.602913 0.000119 -0.000089 -89.793175 -1.359789 0.847147 121.602913
33 121.602913 0.000119 -0.000089 -89.793175 -1.359789 0.847147 121.602913
[L_mid_hand01]
32 103.859421 1.038730 8.195221 130.544373 -67.584534 -38.866943 104.187431
33 103.859421 1.038730 8.195221 130.544373 -67.584534 -38.866943 104.187431
[L_mid_hand02]
32 105.572853 -4.139662 -10.864139 -168.923172 43.409321 -73.498894 106.211075
33 105.572853 -4.139662 -10.864139 -168.923172 43.409309 -73.498886 106.211075
[L_mid_hand03]
32 104.641464 17.579376 -3.913581 -6.012627 17.808174 74.893669 106.179977
33 104.641464 17.579376 -3.913581 -6.012627 17.808174 74.893669 106.179977
[null_rope02_connect]
32 328.732849 0.000179 -0.000119 -146.856506 48.453777 -23.914066 328.732849
33 328.732849 0.000179 -0.000119 -144.915497 43.271629 -23.246845 328.732849
[Rope2_Seg01]
32 0.000055 0.000087 0.000000 -22.440306 -3.891215 -17.362326 0.000103
33 0.000055 0.000085 0.000000 -16.401772 -6.967696 -19.831785 0.000101
[Rope2_Seg02]
32 139.999741 -0.000060 -0.000119 -6.617036 -16.523500 13.658981 139.999756
33 139.999741 -0.000060 -0.000119 -8.354591 -13.194321 14.277538 139.999756
[Rope2_Seg03]
32 140.000107 0.000030 0.000000 -5.245743 -22.463573 16.739933 140.000107
33 140.000107 0.000030 0.000000 -6.839512 -20.704168 19.194178 140.000107
[Rope2_Seg04]
32 139.999802 0.000000 -0.000060 -1.679443 -17.050194 12.143320 139.999802
33 139.999802 0.000000 -0.000060 -2.424418 -17.715799 16.271008 139.999802
[Rope2_Seg05]
32 139.999985 -0.000060 0.000119 -0.411485 -8.534037 3.474766 139.999985
33 139.999985 -0.000060 0.000119 -0.502038 -10.163469 4.377040 139.999985
[Rope2_Seg06]
32 139.999893 -0.000030 -0.000119 -1.243863 -6.445014 0.126172 139.999893
33 139.999893 -0.000030 -0.000119 -2.284663 -8.528422 -0.934171 139.999893
[Rope2_Seg07]
32 139.999893 0.000060 -0.000060 -0.959717 -5.714897 1.005301 139.999893
33 139.999893 0.000060 -0.000060 -1.957947 -6.768234 0.043122 139.999893
[Rope2_Seg09]
32 121.338966 0.000089 -0.000060 33.793236 -1.359788 -0.847141 121.338966
33 121.338966 0.000089 -0.000060 33.793236 -1.359788 -0.847141 121.338966
[R_mid_hand01]
32 104.680779 11.144459 -10.335981 -16.212055 45.237240 70.462852 105.778534
33 104.680779 11.144459 -10.335981 -16.212059 45.237247 70.462852 105.778534
[R_mid_hand02]
32 104.070427 2.443552 8.231699 49.067371 -67.749794 39.286461 104.424065
33 104.070427 2.443552 8.231699 49.067383 -67.749779 39.286449 104.424065
[R_mid_hand03]
32 106.028137 -11.221827 -5.996406 -177.101105 15.551026 -76.585571 106.788818
33 106.028137 -11.221827 -5.996406 -177.101105 15.551026 -76.585571 106.788818
[spine02]
32 129.756927 0.001550 0.000119 -1.023899 -3.926965 6.770993 129.756927
33 129.756927 0.001550 0.000119 -1.023899 -3.926965 6.770993 129.756927
[spine03]
32 78.613846 0.087372 -4.898873 1.040681 4.146420 4.212376 78.766380
33 78.613846 0.087372 -4.898873 1.040681 4.146420 4.212376 78.766380
[pelvis]
32 169.435242 0.051022 0.000000 0.019518 -0.190233 -10.721436 169.435257
33 169.435242 0.051022 0.000000 0.019518 -0.190233 -10.721436 169.435257
[null_rope03_connect]
32 -1.257226 -2.466202 137.391083 -18.572104 -56.892159 130.214371 137.418976
33 -1.257226 -2.466202 137.391083 -11.002608 -54.077133 122.399597 137.418976
[null_rope04_connect]
32 -1.259640 -2.480268 -137.844437 -18.572104 -56.892159 130.214371 137.872513
33 -1.259640 -2.480268 -137.844437 -11.002608 -54.077133 122.399597 137.872513
[Rope3_Seg01]
32 -0.000025 0.000088 -0.000066 -112.410049 -41.572369 -110.455147 0.000112
33 -0.000024 0.000093 -0.000068 -113.842522 -41.100071 -108.632256 0.000118
[Rope3_Seg02]
32 139.999924 -0.000119 0.000060 -2.482703 9.510706 -33.031651 139.999924
33 139.999924 -0.000119 0.000060 -3.095318 12.335906 -32.378094 139.999924
[Rope3_Seg03]
32 139.999924 -0.000119 0.000119 -2.529372 -4.242907 -21.753632 139.999924
33 139.999924 -0.000119 0.000119 -3.111792 -2.497791 -21.979021 139.999924
[Rope3_Seg04]
32 139.999924 0.000119 0.000000 -6.856279 9.692369 -5.360049 139.999924
33 139.999924 0.000119 0.000000 -6.303069 10.370754 -4.814247 139.999924
[Rope3_Seg05]
32 139.999924 -0.000238 0.000060 -4.795114 26.092350 5.982431 139.999924
33 139.999924 -0.000238 0.000060 -3.177448 26.529589 7.351504 139.999924
[Rope3_Seg06]
32 139.999893 -0.000119 -0.000060 1.116459 18.266552 6.365821 139.999893
33 139.999893 -0.000119 -0.000060 2.090364 18.416393 6.808290 139.999893
[Rope3_Seg07]
32 139.999771 0.000060 -0.000119 1.585147 8.207481 2.024651 139.999771
33 139.999771 0.000060 -0.000119 2.065329 8.248386 2.069951 139.999771
[Rope3_Seg08]
32 139.999985 -0.000060 0.000000 1.382854 4.566106 0.997304 139.999985
33 139.999985 -0.000060 0.000000 1.659295 4.564110 0.978622 139.999985
[Rope3_Seg09]
32 90.185997 -0.000179 -0.000060 89.793228 -1.359877 -0.847183 90.185997
33 90.185997 -0.000179 -0.000060 89.793228 -1.359877 -0.847183 90.185997
[R_rear_hand01]
32 103.366196 -6.073594 -10.757982 -177.714188 24.565962 -73.910950 104.101845
33 103.366196 -6.073594 -10.757982 -177.714203 24.565960 -73.910950 104.101845
[R_rear_hand02]
32 100.509819 12.039542 -7.992327 -12.874833 36.868488 72.167213 101.543350
33 100.509819 12.039542 -7.992327 -12.874833 36.868488 72.167213 101.543350
[R_rear_hand03]
32 101.539970 5.215704 5.435467 71.484581 -71.816643 21.513824 101.819031
33 101.539970 5.215704 5.435467 71.484581 -71.816628 21.513813 101.819031
[Rope4_Seg01]
32 0.000000 0.000000 0.000000 -78.052315 24.519079 123.885559 0.000000
33 0.000000 0.000000 0.000000 -72.473923 31.588089 127.073433 0.000000
[Rope4_Seg02]
32 139.999985 0.000060 0.000119 0.090525 -22.531069 -15.067008 139.999985
33 139.999985 0.000060 0.000119 7.645205 -28.550526 -11.853896 139.999985
[Rope4_Seg03]
32 139.999924 0.000000 -0.000238 -147.723526 -52.963753 -50.375652 139.999924
33 139.999924 0.000000 -0.000238 160.491760 -62.102787 -20.324726 139.999924
[Rope4_Seg04]
32 139.999985 0.000000 0.000119 12.617243 -12.429716 0.519134 139.999985
33 139.999985 0.000000 0.000119 5.890605 -3.302279 2.685687 139.999985
[Rope4_Seg05]
32 139.999802 -0.000060 -0.000119 133.956787 -50.410378 -1.980206 139.999802
33 139.999802 -0.000060 -0.000119 -179.459274 -43.871975 -24.998602 139.999802
[Rope4_Seg06]
32 139.999924 0.000000 0.000060 5.196230 6.787565 7.441390 139.999924
33 139.999924 0.000000 0.000060 4.388344 14.275983 9.563941 139.999924
[Rope4_Seg07]
32 139.999802 0.000000 0.000000 1.501498 3.268524 2.954305 139.999802
33 139.999802 0.000000 0.000000 0.452831 4.806211 2.609769 139.999802
[Rope4_Seg08]
32 139.999924 0.000000 0.000119 -0.849648 1.798814 1.546492 139.999924
33 139.999924 0.000000 0.000119 -1.333662 2.545260 1.357291 139.999924
[Rope4_Seg09]
32 90.185791 0.000060 0.000060 -135.617828 2.228885 0.850567 90.185791
33 90.185791 0.000060 0.000060 -135.617828 2.228885 0.850567 90.185791
[L_rear_hand01]
32 101.696655 -8.392275 -7.654577 -12.874833 -36.868500 107.832779 102.329041
33 101.696655 -8.392275 -7.654577 -12.874829 -36.868488 107.832764 102.329041
[L_rear_hand02]
32 102.726799 -1.568258 5.773216 71.484627 71.816643 158.486176 102.900848
33 102.726799 -1.568258 5.773216 71.484581 71.816628 158.486160 102.900848
[L_rear_hand03]
32 104.552910 9.721220 -10.420293 -177.714203 -24.565960 -106.089035 105.519653
33 104.552910 9.721220 -10.420293 -177.714203 -24.565960 -106.089035 105.519653
